<?xml version="1.0" encoding="UTF-8" standalone="no"?>
<!DOCTYPE svg PUBLIC "-//W3C//DTD SVG 1.1//EN"
 "http://www.w3.org/Graphics/SVG/1.1/DTD/svg11.dtd">
<!-- Generated by graphviz version 2.40.1 (20161225.0304)
 -->
<!-- Title: g Pages: 1 -->
<svg width="1379pt" height="393pt"
 viewBox="0.00 0.00 1379.00 393.00" xmlns="http://www.w3.org/2000/svg" xmlns:xlink="http://www.w3.org/1999/xlink">
<g id="graph0" class="graph" transform="scale(1 1) rotate(0) translate(4 389)">
<title>g</title>
<polygon fill="#ffffff" stroke="transparent" points="-4,4 -4,-389 1375,-389 1375,4 -4,4"/>
<!-- align&#45;rustc&#45;predicate -->
<g id="node1" class="node">
<title>align&#45;rustc&#45;predicate</title>
<polygon fill="#c0c0c0" stroke="transparent" points="3,-81 3,-105 365,-105 365,-81 3,-81"/>
<polygon fill="none" stroke="#000000" points="3,-81 3,-105 365,-105 365,-81 3,-81"/>
<text text-anchor="start" x="6" y="-89.2" font-family="Times,serif" font-size="16.00" fill="#000000">Align rustc predicates with chalk predicates</text>
<polygon fill="none" stroke="#000000" points="3,-55 3,-79 365,-79 365,-55 3,-55"/>
<text text-anchor="start" x="55.5" y="-63.2" font-family="Times,serif" font-size="16.00" fill="#000000">isolate Binder into a Forall goal</text>
<polygon fill="none" stroke="#000000" points="3,-29 3,-53 365,-53 365,-29 3,-29"/>
<text text-anchor="start" x="96.5" y="-37.2" font-family="Times,serif" font-size="16.00" fill="#000000">introduce Implication</text>
<polygon fill="none" stroke="#000000" points="3,-3 3,-27 365,-27 365,-3 3,-3"/>
<text text-anchor="start" x="50.5" y="-11.2" font-family="Times,serif" font-size="16.00" fill="#000000">introduce Forall goals with types</text>
<polygon fill="none" stroke="#000000" points="0,0 0,-108 368,-108 368,0 0,0"/>
</g>
<!-- recursive&#45;solver -->
<g id="node2" class="node">
<title>recursive&#45;solver</title>
<polygon fill="#c0c0c0" stroke="transparent" points="15,-181 15,-205 353,-205 353,-181 15,-181"/>
<polygon fill="none" stroke="#000000" points="15,-181 15,-205 353,-205 353,-181 15,-181"/>
<text text-anchor="start" x="18" y="-189.2" font-family="Times,serif" font-size="16.00" fill="#000000">Experiment with a recursive chalk solver</text>
<polygon fill="none" stroke="#000000" points="15,-155 15,-179 353,-179 353,-155 15,-155"/>
<text text-anchor="start" x="57.5" y="-163.2" font-family="Times,serif" font-size="16.00" fill="#000000">write&#45;up the idea that Niko had</text>
<polygon fill="none" stroke="#000000" points="15,-129 15,-153 353,-153 353,-129 15,-129"/>
<text text-anchor="start" x="68" y="-137.2" font-family="Times,serif" font-size="16.00" fill="#000000">build prototype and evaluate</text>
<polygon fill="none" stroke="#000000" points="12,-126 12,-208 356,-208 356,-126 12,-126"/>
</g>
<!-- rust&#45;analyzer&#45;integration -->
<g id="node3" class="node">
<title>rust&#45;analyzer&#45;integration</title>
<polygon fill="#c0c0c0" stroke="transparent" points="866,-307 866,-331 1368,-331 1368,-307 866,-307"/>
<polygon fill="none" stroke="#000000" points="866,-307 866,-331 1368,-331 1368,-307 866,-307"/>
<text text-anchor="start" x="1004" y="-315.2" font-family="Times,serif" font-size="16.00" fill="#000000">Integrate with rust&#45;analyzer</text>
<polygon fill="none" stroke="#000000" points="866,-281 866,-305 1368,-305 1368,-281 866,-281"/>
<text text-anchor="start" x="1018.5" y="-289.2" font-family="Times,serif" font-size="16.00" fill="#000000">How to model impl Trait</text>
<polygon fill="none" stroke="#000000" points="866,-255 866,-279 1368,-279 1368,-255 866,-255"/>
<text text-anchor="start" x="869" y="-263.2" font-family="Times,serif" font-size="16.00" fill="#000000">Ensure that we never need to ask for impls of unknown types</text>
<polygon fill="none" stroke="#000000" points="866,-229 866,-253 1368,-253 1368,-229 866,-229"/>
<text text-anchor="start" x="984.5" y="-237.2" font-family="Times,serif" font-size="16.00" fill="#000000">Deal with performance problems</text>
<polygon fill="none" stroke="#000000" points="866,-203 866,-227 1368,-227 1368,-203 866,-203"/>
<text text-anchor="start" x="1016.5" y="-211.2" font-family="Times,serif" font-size="16.00" fill="#000000">Deal with memory usage</text>
<polygon fill="none" stroke="#000000" points="863,-200 863,-334 1371,-334 1371,-200 863,-200"/>
</g>
<!-- syntactic&#45;semantic&#45;equality -->
<g id="node4" class="node">
<title>syntactic&#45;semantic&#45;equality</title>
<polygon fill="#c0c0c0" stroke="transparent" points="407.5,-255 407.5,-279 824.5,-279 824.5,-255 407.5,-255"/>
<polygon fill="none" stroke="#000000" points="407.5,-255 407.5,-279 824.5,-279 824.5,-255 407.5,-255"/>
<text text-anchor="start" x="410.5" y="-263.2" font-family="Times,serif" font-size="16.00" fill="#000000">Separate syntactic equality from semantic equality</text>
<polygon fill="none" stroke="#000000" points="404,-252 404,-282 827,-282 827,-252 404,-252"/>
</g>
<!-- syntactic&#45;semantic&#45;equality&#45;&gt;rust&#45;analyzer&#45;integration -->
<g id="edge1" class="edge">
<title>syntactic&#45;semantic&#45;equality:all&#45;&gt;rust&#45;analyzer&#45;integration:askfor</title>
<path fill="none" stroke="#000000" d="M824.792,-267C835.2512,-267 845.6479,-267 855.8574,-267"/>
<polygon fill="#000000" stroke="#000000" points="856,-270.5001 866,-267 856,-263.5001 856,-270.5001"/>
</g>
<!-- map&#45;chalk&#45;types&#45;to&#45;rustc&#45;types -->
<g id="node5" class="node">
<title>map&#45;chalk&#45;types&#45;to&#45;rustc&#45;types</title>
<polygon fill="#c0c0c0" stroke="transparent" points="40,-333 40,-357 328,-357 328,-333 40,-333"/>
<polygon fill="none" stroke="#000000" points="40,-333 40,-357 328,-357 328,-333 40,-333"/>
<text text-anchor="start" x="60" y="-341.2" font-family="Times,serif" font-size="16.00" fill="#000000">Map chalk types to rustc types</text>
<polygon fill="none" stroke="#000000" points="40,-307 40,-331 328,-331 328,-307 40,-307"/>
<text text-anchor="start" x="62.5" y="-315.2" font-family="Times,serif" font-size="16.00" fill="#000000">Move Identifier to TypeFamily</text>
<polygon fill="none" stroke="#000000" points="40,-281 40,-305 328,-305 328,-281 40,-281"/>
<text text-anchor="start" x="43" y="-289.2" font-family="Times,serif" font-size="16.00" fill="#000000">Adapt rutsc&#39;s debruijn index model</text>
<polygon fill="none" stroke="#000000" points="40,-255 40,-279 328,-279 328,-255 40,-255"/>
<text text-anchor="start" x="79" y="-263.2" font-family="Times,serif" font-size="16.00" fill="#000000">Remove all vectors, boxes</text>
<polygon fill="none" stroke="#000000" points="40,-229 40,-253 328,-253 328,-229 40,-229"/>
<text text-anchor="start" x="53.5" y="-237.2" font-family="Times,serif" font-size="16.00" fill="#000000">Make intern methods take &amp;self</text>
<polygon fill="none" stroke="#000000" points="37,-226 37,-360 331,-360 331,-226 37,-226"/>
</g>
<!-- map&#45;chalk&#45;types&#45;to&#45;rustc&#45;types&#45;&gt;syntactic&#45;semantic&#45;equality -->
<g id="edge2" class="edge">
<title>map&#45;chalk&#45;types&#45;to&#45;rustc&#45;types:debruijn&#45;&gt;syntactic&#45;semantic&#45;equality:all</title>
<path fill="none" stroke="#000000" d="M328,-293C391.6765,-293 462.9407,-286.6395 518.7092,-280.2104"/>
<polygon fill="#000000" stroke="#000000" points="519.4126,-283.6519 528.9367,-279.0106 518.597,-276.6996 519.4126,-283.6519"/>
</g>
<!-- rustc&#45;integration&#45;mvp -->
<g id="node6" class="node">
<title>rustc&#45;integration&#45;mvp</title>
<polygon fill="#c0c0c0" stroke="transparent" points="486.5,-358 486.5,-382 745.5,-382 745.5,-358 486.5,-358"/>
<polygon fill="none" stroke="#000000" points="486.5,-358 486.5,-382 745.5,-382 745.5,-358 486.5,-358"/>
<text text-anchor="start" x="489.5" y="-366.2" font-family="Times,serif" font-size="16.00" fill="#000000">Integrate chalk&#45;solve into rustc</text>
<polygon fill="none" stroke="#000000" points="486.5,-332 486.5,-356 745.5,-356 745.5,-332 486.5,-332"/>
<text text-anchor="start" x="513" y="-340.2" font-family="Times,serif" font-size="16.00" fill="#000000">remove old chalk support</text>
<polygon fill="none" stroke="#000000" points="486.5,-306 486.5,-330 745.5,-330 745.5,-306 486.5,-306"/>
<text text-anchor="start" x="590.5" y="-314.2" font-family="Times,serif" font-size="16.00" fill="#000000">create</text>
<polygon fill="none" stroke="#000000" points="483,-303 483,-385 748,-385 748,-303 483,-303"/>
</g>
<!-- map&#45;chalk&#45;types&#45;to&#45;rustc&#45;types&#45;&gt;rustc&#45;integration&#45;mvp -->
<g id="edge3" class="edge">
<title>map&#45;chalk&#45;types&#45;to&#45;rustc&#45;types:all&#45;&gt;rustc&#45;integration&#45;mvp:all</title>
<path fill="none" stroke="#000000" d="M328,-345C395.8331,-345 413.5027,-367.6182 476.4371,-369.827"/>
<polygon fill="#000000" stroke="#000000" points="476.4413,-373.3275 486.5,-370 476.5617,-366.3285 476.4413,-373.3275"/>
</g>
</g>
</svg>
